<?xml version="1.0" encoding="utf-8"?>
<!-- Generator: Adobe Illustrator 22.0.1, SVG Export Plug-In . SVG Version: 6.00 Build 0)  -->
<svg version="1.1" id="logo_fuer_SVG" xmlns="http://www.w3.org/2000/svg" xmlns:xlink="http://www.w3.org/1999/xlink" x="0px"
	 y="0px" viewBox="0 0 300 100" style="enable-background:new 0 0 300 100;" xml:space="preserve">
<style type="text/css">
	.st0{fill:#D64315;}
	.st1{fill:none;}
</style>
<title>Zeichenfläche 1</title>
<rect x="130.7" y="34" class="st0" width="1.5" height="12.1"/>
<path class="st0" d="M135.6,37.1v9h1.3v-4.9c-0.1-0.8,0.1-1.5,0.4-2.3c0.3-0.6,0.9-1,1.5-1c0.5-0.1,0.9,0.2,1.2,0.6
	c0.2,0.4,0.2,0.7,0.2,2v5.5h1.3v-5.8c0.1-0.7,0-1.5-0.2-2.2c-0.4-0.9-1.3-1.4-2.2-1.3c-1.1-0.1-2,0.6-2.3,1.7v-1.4L135.6,37.1z"/>
<path class="st0" d="M149.8,34v4.4c-0.4-0.9-1.3-1.5-2.2-1.4c-2,0-3.2,1.8-3.2,4.8s1.1,4.6,3.1,4.6c1,0.1,2-0.5,2.4-1.4v1.3h1.2V34
	H149.8z M149.8,42.3c0.1,0.7,0,1.5-0.4,2.1c-0.4,0.5-0.9,0.8-1.5,0.8c-1.4,0-2-1.2-2-3.6c0-2.3,0.7-3.5,1.9-3.5
	c0.6,0,1.1,0.3,1.4,0.7c0.5,0.6,0.7,1.3,0.6,2L149.8,42.3z"/>
<path class="st0" d="M157.5,36.9c-2.2,0-3.5,1.7-3.5,4.8s1.2,4.7,3.4,4.7s3.5-1.7,3.5-4.7c0.2-1.5-0.3-2.9-1.3-4
	C159,37.1,158.2,36.8,157.5,36.9 M157.5,37.9c1.3,0,1.9,1.3,1.9,3.6s-0.7,3.6-2,3.6s-2-1.3-2-3.6S156.1,37.9,157.5,37.9L157.5,37.9z
	"/>
<rect x="163.1" y="41" class="st0" width="4" height="1.1"/>
<path class="st0" d="M173.9,40.1v1.2h2.5v0.4c0,2.1-0.9,3.4-2.5,3.4c-1.9,0-2.9-1.8-2.9-5.1s1-5.1,2.8-5.1c0.7,0,1.4,0.3,1.8,0.9
	c0.3,0.5,0.6,1.1,0.7,1.7l1.4-0.5c-0.6-2.4-1.7-3.3-3.8-3.3c-2.9,0-4.4,2.3-4.4,6.4c0,2.4,0.6,4.3,1.7,5.3c0.7,0.6,1.6,0.9,2.5,0.9
	c1.2,0.1,2.4-0.6,2.9-1.8l0.2,1.7h1v-6.1H173.9z"/>
<path class="st0" d="M187.3,41.8c0-0.5,0-0.9-0.1-1.4c-0.1-0.8-0.3-1.6-0.8-2.3c-0.6-0.8-1.5-1.2-2.4-1.2c-2.1,0-3.5,1.9-3.5,4.8
	s1.2,4.6,3.4,4.6c1.6,0.1,2.9-1.1,3.1-2.6l-1.2-0.3c-0.4,1.3-0.9,1.8-1.8,1.8c-1.4,0-2.1-1.1-2.1-3.3v-0.2L187.3,41.8z M182,40.7
	c0.1-1.8,0.8-2.7,1.9-2.7s1.8,1,1.8,2.7H182z"/>
<path class="st0" d="M190,37.1v9h1.3v-4.7c-0.1-0.8,0.1-1.6,0.6-2.3c0.3-0.5,0.9-0.8,1.5-0.8c0.1,0,0.2,0,0.4,0v-1.5h-0.3
	c-0.3,0-0.7,0.1-0.9,0.3c-0.7,0.4-1.1,1.1-1.3,1.8v-1.9H190z"/>
<path class="st0" d="M195.9,37.1v9h1.3v-5.2c-0.1-0.6,0-1.2,0.2-1.8c0.2-0.7,0.9-1.1,1.6-1.1c0.6-0.1,1.1,0.3,1.3,0.9
	c0.1,0.6,0.2,1.3,0.1,1.9v5.3h1.3v-5.3c0-1.8,0.6-2.8,1.8-2.8c0.5,0,1,0.3,1.2,0.7c0.2,0.6,0.3,1.3,0.2,1.9v5.5h1.3v-5.5
	c0.1-0.9,0-1.8-0.4-2.6c-0.4-0.7-1.2-1.1-2-1.1c-1.1,0-2.1,0.7-2.4,1.8c-0.1-1.1-1-1.9-2.1-1.8c-1.1,0-1.6,0.4-2.2,1.6v-1.4H195.9z"
	/>
<path class="st0" d="M210.7,39.4c0.1-0.8,0.9-1.5,1.8-1.4c1.2,0,1.7,0.7,1.7,2.2v0.4c-0.4-0.1-0.8-0.1-1.2-0.1
	c-1.2-0.1-2.4,0.3-3.3,1.1c-0.4,0.6-0.7,1.3-0.7,2c-0.1,1.4,0.9,2.6,2.3,2.7c0.1,0,0.2,0,0.3,0c1.2,0,1.9-0.5,2.6-1.8
	c0,0.5,0,1.1,0.1,1.6h1.3c-0.2-1-0.2-1.9-0.2-2.9v-2.6c0-1.6-0.1-2.2-0.5-2.7c-0.6-0.7-1.5-1.1-2.4-1c-0.9,0-1.7,0.3-2.4,0.8
	c-0.5,0.4-0.8,0.9-0.8,1.5L210.7,39.4z M214.2,42.3c0,1.8-0.9,2.9-2.2,2.9c-0.8,0.1-1.4-0.5-1.5-1.2c0-0.1,0-0.2,0-0.3
	c0-1.5,0.9-2.2,2.7-2.2c0.3,0,0.7,0,1,0.1L214.2,42.3z"/>
<path class="st0" d="M218.8,37.1v9h1.3v-4.9c-0.1-0.8,0.1-1.5,0.4-2.3c0.3-0.6,0.9-1,1.5-1c0.5-0.1,0.9,0.2,1.2,0.6
	c0.2,0.4,0.2,0.7,0.2,2v5.5h1.3v-5.8c0.1-0.7,0-1.5-0.2-2.2c-0.4-0.9-1.3-1.4-2.2-1.3c-1.1-0.1-2,0.6-2.3,1.7v-1.4L218.8,37.1z"/>
<polygon class="st0" points="130.7,53.6 130.7,65.7 137.4,65.7 137.4,64.5 132.1,64.5 132.1,60 136.2,60 136.2,58.8 132.1,58.8 
	132.1,54.8 137.3,54.8 137.3,53.6 "/>
<path class="st0" d="M139.6,56.7v9h1.3v-4.9c-0.1-0.8,0.1-1.5,0.4-2.3c0.3-0.6,0.9-1,1.5-1c0.5-0.1,0.9,0.2,1.2,0.6
	c0.2,0.4,0.2,0.7,0.2,2v5.5h1.3V60c0.1-0.7,0-1.5-0.2-2.2c-0.4-0.9-1.3-1.4-2.2-1.3c-1.1,0-2,0.6-2.3,1.7v-1.4L139.6,56.7z"/>
<path class="st0" d="M154.8,61.4c0-0.5,0-0.9-0.1-1.4c-0.1-0.8-0.3-1.6-0.8-2.3c-0.5-0.8-1.4-1.2-2.4-1.2c-2.1,0-3.5,1.9-3.5,4.9
	s1.2,4.6,3.4,4.6c1.6,0.1,2.9-1.1,3.1-2.6l-1.2-0.3c-0.4,1.3-0.9,1.8-1.8,1.8c-1.4,0-2-1.1-2.1-3.3v-0.2L154.8,61.4z M149.6,60.3
	c0.1-1.8,0.8-2.7,1.9-2.7s1.8,1,1.8,2.7H149.6z"/>
<path class="st0" d="M157.3,56.7v9h1.3V61c-0.1-0.8,0.1-1.6,0.6-2.3c0.3-0.5,0.9-0.8,1.5-0.8c0.1,0,0.2,0,0.4,0v-1.5h-0.3
	c-0.4,0-0.7,0.1-1,0.3c-0.7,0.4-1.1,1.1-1.3,1.8v-1.9H157.3z"/>
<path class="st0" d="M169.3,55.3h-0.2c-1.2-0.1-1.7,0.4-1.9,1.5c-0.4-0.3-1-0.4-1.5-0.4c-1.7,0.1-3.1,1.6-3,3.3c0,0.8,0.4,1.6,1,2.2
	c-0.7,0.2-1.2,0.9-1.1,1.7c0,0.6,0.3,1.1,0.8,1.4c-0.8,0.2-1.3,1-1.2,1.8c0,1.5,1.3,2.4,3.6,2.4s3.8-0.9,3.8-2.6
	c0.1-0.8-0.3-1.5-1-1.9c-0.8-0.3-1.6-0.4-2.4-0.4c-1.6-0.1-1.7-0.1-2-0.2c-0.3-0.1-0.4-0.4-0.4-0.7c0-0.5,0.2-0.7,0.7-0.9
	c0.4,0.1,0.7,0.2,1.1,0.2c1.7,0,3-1.3,3-3c0,0,0,0,0-0.1c0-0.7-0.2-1.4-0.7-2c0.1-0.8,0.4-1.1,0.9-1.1c0.1,0,0.2,0,0.4,0L169.3,55.3
	z M165.7,57.6c1,0,1.6,0.8,1.6,2s-0.7,2-1.6,2s-1.6-0.8-1.6-2S164.7,57.6,165.7,57.6 M164.9,65.3c0.8,0,1.6,0,2.4,0.1
	c0.5,0.1,0.9,0.6,0.9,1.1c0,1-0.8,1.5-2.3,1.5s-2.3-0.5-2.3-1.5c0-0.5,0.3-1,0.8-1.2L164.9,65.3z"/>
<path class="st0" d="M170.4,56.7l2.5,8.6c-0.6,2.2-0.8,2.5-1.8,2.5c-0.2,0-0.4,0-0.6-0.1v1.1c0.3,0.1,0.6,0.1,0.9,0.1
	c1.2,0,1.8-0.6,2.4-2.3l3.1-9.9h-1.3l-2,6.7l-1.8-6.7L170.4,56.7z"/>
<polygon class="st0" points="182.8,53.6 182.8,65.7 184.3,65.7 184.3,60 188.3,60 188.3,58.8 184.3,58.8 184.3,54.8 189.2,54.8 
	189.2,53.6 "/>
<path class="st0" d="M193.8,56.5c-2.2,0-3.4,1.7-3.4,4.8s1.2,4.7,3.4,4.7s3.5-1.7,3.5-4.7c0.2-1.5-0.3-2.9-1.3-4
	C195.4,56.7,194.6,56.4,193.8,56.5z M193.8,57.6c1.3,0,1.9,1.3,1.9,3.6s-0.7,3.6-2,3.6s-2-1.3-2-3.6S192.6,57.6,193.8,57.6z"/>
<path class="st0" d="M199.8,56.7v9h1.3V61c-0.1-0.8,0.1-1.6,0.6-2.3c0.3-0.5,0.9-0.8,1.5-0.8c0.1,0,0.2,0,0.3,0v-1.5h-0.3
	c-0.3,0-0.7,0.1-0.9,0.3c-0.7,0.4-1.1,1.1-1.4,1.8v-1.9H199.8z"/>
<path class="st0" d="M205.4,56.7v5.7c0,0.8,0,1.5,0.3,2.3c0.4,0.8,1.2,1.4,2.1,1.3c1,0,2-0.6,2.3-1.6v1.3h1.2v-9h-1.3v4.1
	c0.1,1,0,2-0.4,3c-0.2,0.6-0.9,1.1-1.5,1.1c-0.5,0.1-1.1-0.3-1.2-0.8c-0.1-0.6-0.2-1.1-0.1-1.7v-5.7H205.4z"/>
<path class="st0" d="M214.4,56.7v9h1.3v-5.2c-0.1-0.6,0-1.2,0.2-1.8c0.2-0.7,0.8-1.1,1.5-1.1c0.6-0.1,1.2,0.3,1.3,0.9
	c0.1,0.6,0.2,1.3,0.1,1.9v5.3h1.3v-5.3c0-1.8,0.7-2.8,1.8-2.8c0.5,0,1,0.3,1.2,0.7c0.2,0.6,0.3,1.3,0.2,1.9v5.5h1.3v-5.5
	c0.1-0.9,0-1.8-0.3-2.6c-0.4-0.7-1.2-1.1-2-1.1c-1.1,0-2.1,0.7-2.4,1.8c-0.1-1.1-1.1-1.9-2.1-1.8c-1.1,0-1.6,0.4-2.2,1.6v-1.4H214.4
	z"/>
<path class="st0" d="M99,60.4c-2.4,2.1-14.3,1.9-17.8,1.3c-6.2-1-6.3-6.4-6.3-6.4c2.2,0.7,4.6,1,6.9,1c8.2,0,15.1-4,18.3-10.5
	C100.1,53.6,100,59.5,99,60.4 M70.3,37.2c0-7.7,5.2-13.9,11.5-13.9s11.5,6.2,11.5,13.9s-5.2,13.9-11.5,13.9S70.3,44.9,70.3,37.2
	 M47.5,51.9c-5.9,0-10.8-5.3-10.8-11.8s4.8-11.3,10.8-11.3S58.2,33.5,58.2,40S53.4,51.9,47.5,51.9 M47.2,65.7h11.3
	c3.2,0,3.2,4,3.2,4v8.2c0,6.5-7.1,11.3-14.3,11.3s-13-5.3-13-11.8S40,65.7,47.2,65.7 M114.9,18.1v-4.6C98.8,14.3,99.8,23.3,99.7,24
	c0,0,0,1.9,0.1,4.8C96.4,22.6,89.5,19,81.4,19c-8.9,0-16.6,4.4-19.3,11.8c-1.1-1-2.3-1.8-3.6-2.5c2.8-2.5,5.4-6.7,3.5-9.7
	c0,0-4,4.8-12.9,7.1c-0.5,0-1.1,0-1.6,0c-10.7,0-19.3,6.7-19.3,15c0,5.2,3.3,9.7,8.4,12.4c-3,1.2-4.9,3.3-4.9,5.7
	c0,1.3,0.6,2.5,1.6,3.3h-6.2c-3.6,0-3.4-4.5-3.4-4.5V26.4c0,0-0.3-4.1-3.5-4.1h-13v5.1h5.5c4,0,3.5,4.9,3.5,4.9v29
	c0,0,0.1,4.4,3.5,4.4h13.6c-4.6,2.6-7.7,6.6-7.7,12.2c0,11.9,11.3,15,21.9,15c10.1,0,20.8-0.9,21.8-11.4V66.3c0,0,0-4.4-3.4-4.4
	H45.2c-1.2,0-8-2.1-2.8-6.4c1.9,0.7,3.8,1,5.8,1c5.7-0.1,11.1-2.5,15-6.7C67,60.6,75.1,65.6,81.5,65.6h22.1c3.1,0,3.2-4,3.2-4V32.3
	h6.6v-3.4h-6.6v-5.7C106.8,18.1,114.9,18.1,114.9,18.1"/>
<path class="st0" d="M20,18.7c3.1-0.2,5.5-2.8,5.4-5.9c0.1-3-2.2-5.5-5.1-5.6c-3-0.1-5.5,2.2-5.6,5.1c0,0.2,0,0.3,0,0.5
	C14.5,15.9,16.9,18.5,20,18.7"/>
<rect class="st1" width="300" height="100"/>
</svg>
