<svg id="Layer_1" data-name="Layer 1" xmlns="http://www.w3.org/2000/svg" viewBox="0 0 212.97278 244.34587"><defs><style>.cls-1{fill:#00a451;}</style></defs><path id="Logo" class="cls-1" d="M246.37866,139.89606A72,72,0,1,1,174.3786,67.896,72.00006,72.00006,0,0,1,246.37866,139.89606Zm-22.0777,0a49.9223,49.9223,0,1,0-49.92236,49.9226A49.92221,49.92221,0,0,0,224.301,139.89607Zm-81.15219-34.19918H154.823v37.60635c0,2.3907.73117,4.44868,4.05433,4.44868,3.06027,0,3.99273-2.65771,3.99273-4.78142V105.69689h11.67008v36.07827c0,8.43729-3.77912,14.95216-15.72853,14.95216-9.89144,0-15.66281-4.71979-15.66281-14.95216V105.69689m35.98789,67.89681h25.96091v-9.99413H190.80674V123.72165H179.13666V173.5937m5.19848,122.775a3.02578,3.02578,0,0,1-3.24483,2.68557c-2.24872,0-3.50134-1.77345-3.63155-5.10161h12.36471a12.86219,12.86219,0,0,0,.08594-1.77346c.04427-8.21362-4.323-11.06782-8.905-11.06782-5.14588,0-9.33863,3.71879-9.33863,11.50012,0,7.22013,3.71748,10.98188,9.46754,10.98188,4.74028,0,8.20223-2.49774,8.82919-7.22468Zm-3.33077-10.71691c1.77216,0,3.19926,1.38283,3.24222,4.28h-6.74486C177.71788,287.25073,179.01477,285.65175,181.00437,285.65175Zm56.38125,10.71691a3.02578,3.02578,0,0,1-3.24483,2.68557c-2.24872,0-3.50134-1.77345-3.63155-5.10161H242.874a12.86219,12.86219,0,0,0,.08594-1.77346c.04427-8.21362-4.323-11.06782-8.905-11.06782-5.14588,0-9.33863,3.71879-9.33863,11.50012,0,7.22013,3.71748,10.98188,9.46754,10.98188,4.74028,0,8.20223-2.49774,8.82919-7.22468Zm-3.33077-10.71691c1.77216,0,3.19925,1.38283,3.24222,4.28h-6.74486C230.76836,287.25073,232.06525,285.65175,234.05485,285.65175ZM85.10321,297.84459v5.31776H67.896V272.899H84.67091v5.31776H73.86221v6.95971h9.20973v5.27479H73.86221v7.39331Zm3.5885-16.29965h5.4037l.51954,2.29169h.38933a5.811,5.811,0,0,1,5.18755-2.724c4.02087,0,6.52871,2.81122,6.52871,7.52351v14.52619H100.7973V289.84581c0-2.46357-1.33985-3.67452-2.9831-3.67452s-3.19925,1.168-3.19925,3.89067v13.10039H88.69171Zm37.44,3.07035a7.103,7.103,0,0,1,1.16668,3.89066c0,4.75526-3.67452,7.26309-8.2566,7.26309a12.743,12.743,0,0,1-2.94013-.34505,1.67472,1.67472,0,0,0-.64845,1.33986c0,1.12371.9935,1.81512,2.55081,1.81512h3.15628c4.62505,0,7.17586,2.55081,7.17586,6.35553,0,4.49614-3.58858,7.30737-9.2514,7.30737-5.96621,0-9.03655-3.02738-9.55478-6.8308l3.24222-3.07034a4.55305,4.55305,0,0,1-2.46357-4.14979,5.25124,5.25124,0,0,1,2.63675-4.4102,6.61842,6.61842,0,0,1-2.24873-5.27479c0-4.28,3.07035-7.3933,8.21493-7.3933a9.367,9.367,0,0,1,4.323.9948,10.39613,10.39613,0,0,0,3.07035-3.069l2.94013,2.85289A8.90038,8.90038,0,0,1,126.13168,284.61529Zm-6.2696,18.50409h-2.29039L115.237,305.583a3.81864,3.81864,0,0,0,3.84769,2.37893c1.9883,0,3.67452-.8659,3.67452-2.59508C122.75925,303.81079,121.50533,303.11938,119.86208,303.11938Zm1.81643-14.6564c0-2.11851-1.12371-3.28649-2.63675-3.28649-1.60027,0-2.724,1.168-2.724,3.28649,0,2.07554,1.12371,3.19925,2.724,3.19925C120.5548,291.66223,121.67851,290.53852,121.67851,288.463Zm27.62476,10.2462v4.45317h-2.50654a3.71461,3.71461,0,0,1-3.84769-2.24872c-1.168,1.73049-2.98311,2.681-5.79433,2.681-4.10682,0-6.87377-2.16148-6.87377-6.18236,0-4.58338,3.4154-6.31256,6.918-6.918l4.49614-.69141V288.506c0-1.85939-.90887-2.80992-2.4219-2.80992-1.599,0-2.46357.9948-2.59378,2.85289H130.7562c.25912-4.66932,3.37243-7.43627,8.47405-7.43627,4.49614,0,8.3868,2.07554,8.3868,7.52351v8.60295c0,.95183.38933,1.47007,1.21095,1.47007Zm-7.60815-4.97141-2.724.47527c-1.25392.21615-2.76695.82162-2.76695,2.724a2.02066,2.02066,0,0,0,2.20445,2.20445c1.47006,0,3.28649-.77866,3.28649-3.50134Zm26.02578-9.12248a7.10294,7.10294,0,0,1,1.16668,3.89066c0,4.75526-3.67451,7.26309-8.25659,7.26309a12.74316,12.74316,0,0,1-2.94014-.34505,1.67473,1.67473,0,0,0-.64844,1.33986c0,1.12371.9935,1.81512,2.55081,1.81512h3.15628c4.625,0,7.17585,2.55081,7.17585,6.35553,0,4.49614-3.58857,7.30737-9.25139,7.30737-5.96621,0-9.03655-3.02738-9.55479-6.8308l3.24222-3.07034a4.55306,4.55306,0,0,1-2.46356-4.14979,5.25123,5.25123,0,0,1,2.63674-4.4102,6.61841,6.61841,0,0,1-2.24872-5.27479c0-4.28,3.07035-7.3933,8.21493-7.3933a9.367,9.367,0,0,1,4.323.9948,10.396,10.396,0,0,0,3.07034-3.069l2.94014,2.85289A8.90051,8.90051,0,0,1,167.7209,284.61529Zm-6.26959,18.50409h-2.29039l-2.33466,2.46357a3.81866,3.81866,0,0,0,3.8477,2.37893c1.9883,0,3.67451-.8659,3.67451-2.59508C164.34847,303.81079,163.09456,303.11938,161.45131,303.11938Zm1.81642-14.6564c0-2.11851-1.1237-3.28649-2.63674-3.28649-1.60028,0-2.724,1.168-2.724,3.28649,0,2.07554,1.12371,3.19925,2.724,3.19925C162.144,291.66223,163.26773,290.53852,163.26773,288.463Zm30.12765-6.918h5.405l.51823,2.29169h.38933a5.65915,5.65915,0,0,1,5.10161-2.724,4.82662,4.82662,0,0,1,4.71229,2.9831h.34636a6.39808,6.39808,0,0,1,5.70709-2.9831c3.76045,0,6.09511,2.20575,6.09511,6.961v15.0887h-5.92323v-13.965c0-1.9883-1.12371-3.069-2.59378-3.069-1.556,0-2.67972,1.29689-2.67972,3.32946v13.70457h-5.92323V289.32757c0-2.03257-1.08074-3.19925-2.50784-3.19925-1.38283,0-2.724,1.16668-2.724,3.28519v13.74884h-5.92323Zm52.82647,0h5.405l.51823,2.29169h.38933a5.815,5.815,0,0,1,5.18885-2.724c4.01957,0,6.52741,2.81122,6.52741,7.52351v14.52619h-5.92324V289.84581c0-2.46357-1.33985-3.67452-2.9831-3.67452-1.64194,0-3.19925,1.168-3.19925,3.89067v13.10039h-5.92324ZM269.758,297.49823v-11.284h-3.66384v-4.66932h1.07006c2.20445,0,3.19925-.82032,3.19925-3.069v-2.55081h5.31777v5.61985h5.18755v4.66932h-5.18755V296.5477c0,1.38283.60547,2.37763,2.5508,2.37763a8.79559,8.79559,0,0,0,1.90237-.21615v4.4102a15.27062,15.27062,0,0,1-3.71749.47527C271.57441,303.59465,269.758,300.9579,269.758,297.49823Zm-190.5682-32.387c-6.31256,0-9.77093-3.63155-9.8139-9.8139H75.3421c.12891,3.19925,1.47007,4.62635,3.80342,4.62635,1.73049,0,3.15629-.77866,3.15629-2.94014,0-2.20575-1.72919-3.54561-4.4089-5.01567L75.60122,250.628c-2.98311-1.556-5.62116-3.80473-5.62116-8.17066,0-5.57818,4.10812-8.474,9.20973-8.474,5.53392,0,8.99228,3.4154,9.03525,8.99228h-5.836c-.21615-2.50784-1.25392-3.80473-3.24353-3.80473a2.723,2.723,0,0,0-2.93883,2.8542c0,2.29038,1.9883,3.37112,4.19275,4.53911l1.81643,1.08074c2.20445,1.16667,6.31256,3.32946,6.31256,9.07952C88.52843,262.73355,84.11823,265.11118,79.18979,265.11118Zm47.151-4.88547v4.45317H123.833a3.71561,3.71561,0,0,1-3.8477-2.24872c-1.16668,1.73049-2.9831,2.681-5.793,2.681-4.10682,0-6.87377-2.16148-6.87377-6.18236,0-4.58338,3.4154-6.31256,6.91673-6.918l4.49614-.69142v-1.29689c0-1.85939-.90756-2.80992-2.42059-2.80992-1.60028,0-2.46487.9948-2.59378,2.85289h-5.92324c.25912-4.66932,3.37243-7.43627,8.47405-7.43627,4.49614,0,8.3868,2.07554,8.3868,7.52351v8.603c0,.95183.38933,1.47006,1.211,1.47006Zm-7.60946-4.9714-2.724.47526c-1.25392.21615-2.767.82163-2.767,2.724a2.02161,2.02161,0,0,0,2.20575,2.20445c1.47007,0,3.28519-.77865,3.28519-3.50134Zm10.72925-12.19283h5.405l.51824,2.29169h.38932a5.8123,5.8123,0,0,1,5.18886-2.724c4.01957,0,6.52741,2.81123,6.52741,7.52351v14.52619h-5.92324V251.36234c0-2.46357-1.33986-3.67452-2.9831-3.67452-1.642,0-3.19925,1.168-3.19925,3.89067v13.10039h-5.92324Zm39.94673-9.07822v30.69562h-4.8425l-.47526-2.07554h-.38933a5.84269,5.84269,0,0,1-5.01568,2.50784c-4.84249,0-8.12768-3.89067-8.12768-11.241,0-7.69539,3.71748-11.241,8.12768-11.241a6.0306,6.0306,0,0,1,4.79953,2.03257V233.98326Zm-5.92324,19.88692c0-4.323-1.4271-6.18236-3.50264-6.18236s-3.50134,1.8594-3.50134,6.18236c0,4.28,1.4258,6.18235,3.50134,6.18235S163.48408,258.15017,163.48408,253.87018Zm28.11511,6.35553v4.45317h-2.50784a3.71558,3.71558,0,0,1-3.84769-2.24872c-1.16668,1.73049-2.9831,2.681-5.793,2.681-4.10681,0-6.87377-2.16148-6.87377-6.18236,0-4.58338,3.4154-6.31256,6.91674-6.918l4.49614-.69142v-1.29689c0-1.85939-.90756-2.80992-2.4206-2.80992-1.60027,0-2.46487.9948-2.59377,2.85289h-5.92324c.25912-4.66932,3.37243-7.43627,8.474-7.43627,4.49614,0,8.38681,2.07554,8.38681,7.52351v8.603c0,.95183.38932,1.47006,1.21095,1.47006Zm-7.60945-4.9714-2.724.47526c-1.25392.21615-2.767.82163-2.767,2.724a2.02161,2.02161,0,0,0,2.20575,2.20445c1.47007,0,3.28519-.77865,3.28519-3.50134Zm10.89855-12.19283h5.4037l.51954,2.681h.38932c1.08074-1.94533,2.37763-3.11331,5.44667-3.11331h1.211v5.88027a16.45139,16.45139,0,0,0-1.90236-.17318c-3.93494,0-5.14458,3.32946-5.14458,6.57168v9.77093h-5.92324Zm33.32117-9.07822v30.69562H223.367l-.47526-2.07554h-.38933a5.84268,5.84268,0,0,1-5.01567,2.50784c-4.8425,0-8.12769-3.89067-8.12769-11.241,0-7.69539,3.71749-11.241,8.12769-11.241a6.03058,6.03058,0,0,1,4.79952,2.03257V233.98326Zm-5.92324,19.88692c0-4.323-1.42709-6.18236-3.50264-6.18236s-3.50133,1.8594-3.50133,6.18236c0,4.28,1.42579,6.18235,3.50133,6.18235S222.28622,258.15017,222.28622,253.87018Zm8.93812,4.02087h5.66412c.17187,2.07555,1.38282,2.89717,2.93883,2.89717,1.34116,0,2.29169-.60548,2.29169-1.81643,0-1.47006-1.21095-2.11851-3.15628-2.89586l-1.642-.60547c-2.638-.99481-5.57818-2.33466-5.57818-6.35554,0-4.28,3.50264-6.48574,7.69669-6.48574,5.10162,0,7.6954,2.81123,7.95451,6.70189h-5.53391a2.29779,2.29779,0,0,0-2.4206-2.37763,1.83071,1.83071,0,0,0-2.03257,1.90237c0,1.29688,1.21095,1.81512,2.94014,2.50653l1.599.60548c2.681.95183,5.79433,2.638,5.79433,6.87507,0,4.36593-3.63285,6.26829-7.95581,6.26829C234.25041,265.11118,231.35455,262.34422,231.22434,257.89105ZM94.06805,259.01476v-11.284H90.40421v-4.66931h1.07006c2.20445,0,3.19926-.82033,3.19926-3.069v-2.5508h5.31776v5.61985h5.18755v4.66931H99.99129v10.33344c0,1.38283.60547,2.37763,2.55081,2.37763a8.79557,8.79557,0,0,0,1.90236-.21615v4.4102a15.27056,15.27056,0,0,1-3.71749.47527C95.88448,265.11118,94.06805,262.47443,94.06805,259.01476Zm185.39139,5.66284-5.18807-6.94818,4.87888-8.10573h-5.40588l-2.45429,4.11288-2.7044-3.62191.22065-.21262c2.322-2.187,4.30537-4.67113,4.30537-7.69689,0-4.1537-2.9989-7.01416-7.30338-7.01416-4.45851,0-7.53783,3.00085-7.53783,7.30955,0,2.34149.93228,4.05843,2.58332,6.28841l.49065.637-.32169.28452c-2.77054,2.37435-4.6932,4.865-4.6932,8.07871,0,4.109,3.00174,7.3382,8.36282,7.3382a7.74973,7.74973,0,0,0,6.46273-3.22962l2.05413,2.77987Zm-13.70492-24.89493c1.40312,0,2.16043,1.12347,2.16043,2.54753,0,1.6405-1.19415,3.06951-2.40024,4.23705l-.24135-.33622c-1.25623-1.73779-1.71353-2.78969-1.71353-3.91446A2.25518,2.25518,0,0,1,265.75452,239.78267ZM264.724,260.18005a2.67224,2.67224,0,0,1-2.83018-2.70586c0-1.35866.93382-2.70148,2.28606-4.01039l.43465-.41769,3.64317,4.93041C267.22865,259.523,266.24273,260.18005,264.724,260.18005Z" transform="translate(-67.896 -67.896)"/></svg>